<svg
   width="210mm"
   height="297mm"
   viewBox="0 0 210 297"
   xmlns="http://www.w3.org/2000/svg">
  <g>
    <path
       style="fill:#000000;fill-opacity:0;stroke:#000000;stroke-width:0.264583;stroke-opacity:1" id="curve"
       d="m 22.817844,139.11524 c 5.275093,1.59479 10.343636,4.21732 15.825279,4.78439 1.627217,0.16833 8.945965,-4.77307 10.304833,-5.52045 0.67243,-0.36984 3.154616,-1.24434 4.048326,-1.84015 0.288705,-0.19247 0.438525,-0.55754 0.73606,-0.73606 0.665305,-0.39918 1.501846,-0.415 2.208178,-0.73606 0.998903,-0.45404 1.980965,-0.94669 2.944238,-1.47212 0.388308,-0.2118 0.736058,-0.4907 1.104088,-0.73606 0.73606,-0.4907 1.429285,-1.05271 2.208178,-1.47211 0.822606,-0.44295 1.740567,-0.68627 2.576208,-1.10409 4.257249,-2.12863 1.506877,-1.44668 7.360595,-4.04833 0.571619,-0.25405 1.268534,-0.11398 1.84015,-0.36803 3.855035,-1.71335 -1.049125,-0.74522 3.312266,-1.47212 5.548929,-0.92482 8.696796,2.49849 12.881041,5.52045 2.266844,1.63716 4.986473,2.77829 6.992567,4.78438 0.59472,0.59472 2.769532,3.66841 3.312269,4.04833 0.51245,0.35872 1.28065,0.0883 1.84015,0.36803 0.93105,0.46552 1.60314,1.36113 2.20818,2.20818 0.73412,1.02777 1.11584,2.27755 1.84014,3.31227 0.90093,1.28703 2.07279,2.37312 2.94424,3.68029 1.54094,2.3114 -0.25609,0.848 2.20818,3.31227 2.6115,2.6115 5.87992,3.69956 9.20074,5.15242 1.21049,0.52959 2.3636,1.36239 3.6803,1.47212 1.10028,0.0917 2.22599,-0.19751 3.31227,0 0.34138,0.0621 0.39581,0.66801 0.73606,0.73606 1.5484,0.30968 5.6771,0.24049 7.36059,0 3.4393,-0.49133 2.52,-0.70796 5.52045,-2.20818 4.69872,-2.34937 4.20112,-2.64568 7.36059,-6.25651 2.60365,-2.97559 0.40101,0.20139 3.31227,-3.6803 0.53078,-0.7077 0.8844,-1.54699 1.47212,-2.20817 0.40751,-0.45845 1.10409,-0.61339 1.47212,-1.10409 0.74244,-0.98993 1.91243,-4.30353 2.57621,-5.52045 1.59372,-2.92183 3.07566,-5.13268 5.15241,-7.72862 1.01849,-1.27311 0.93277,-2.12252 2.57621,-2.94424 0.21945,-0.10973 0.51661,0.10972 0.73606,0 0.31035,-0.15518 0.41713,-0.59938 0.73606,-0.73606 2.62029,-1.12298 6.36863,-0.27459 8.46468,1.47212 0.73606,0.61338 1.16265,1.53067 1.84015,2.20818 7.48355,7.48354 -0.0615,-0.79754 3.6803,2.94423 1.76642,1.76642 2.20818,5.39948 2.20818,7.72863" />
       <circle
       r="2"
       cy="0"
       cx="0"
       id="dot"
       style="fill: #dd1819" />
      </g>
</svg>
